<mxfile host="app.diagrams.net" agent="Mozilla/5.0 (Windows NT 10.0; Win64; x64; rv:135.0) Gecko/20100101 Firefox/135.0" version="26.0.13">
  <diagram id="Ht1M8jgEwFfnCIfOTk4-" name="Page-1">
    <mxGraphModel dx="1672" dy="1853" grid="1" gridSize="10" guides="1" tooltips="1" connect="1" arrows="1" fold="1" page="1" pageScale="1" pageWidth="1169" pageHeight="827" math="0" shadow="0">
      <root>
        <mxCell id="0" />
        <mxCell id="1" parent="0" />
        <mxCell id="UEzPUAAOIrF-is8g5C7q-74" value="AWS Cloud" style="points=[[0,0],[0.25,0],[0.5,0],[0.75,0],[1,0],[1,0.25],[1,0.5],[1,0.75],[1,1],[0.75,1],[0.5,1],[0.25,1],[0,1],[0,0.75],[0,0.5],[0,0.25]];outlineConnect=0;gradientColor=none;html=1;whiteSpace=wrap;fontSize=12;fontStyle=0;shape=mxgraph.aws4.group;grIcon=mxgraph.aws4.group_aws_cloud_alt;strokeColor=#232F3E;fillColor=none;verticalAlign=top;align=left;spacingLeft=30;fontColor=#232F3E;dashed=0;labelBackgroundColor=#ffffff;container=1;pointerEvents=0;collapsible=0;recursiveResize=0;" parent="1" vertex="1">
          <mxGeometry x="144" y="140" width="986" height="610" as="geometry" />
        </mxCell>
        <mxCell id="6aTcpgWq0u6PUV2rPB39-4" value="" style="outlineConnect=0;dashed=0;verticalLabelPosition=bottom;verticalAlign=top;align=center;html=1;shape=mxgraph.aws3.internet_gateway;fillColor=#F58536;gradientColor=none;" parent="UEzPUAAOIrF-is8g5C7q-74" vertex="1">
          <mxGeometry x="196" y="70" width="50" height="50" as="geometry" />
        </mxCell>
        <mxCell id="6aTcpgWq0u6PUV2rPB39-7" value="AZ ap-northeast-2a" style="sketch=0;outlineConnect=0;gradientColor=none;html=1;whiteSpace=wrap;fontSize=12;fontStyle=0;shape=mxgraph.aws4.group;grIcon=mxgraph.aws4.group_availability_zone;strokeColor=#545B64;fillColor=none;verticalAlign=top;align=left;spacingLeft=30;fontColor=#545B64;dashed=1;" parent="UEzPUAAOIrF-is8g5C7q-74" vertex="1">
          <mxGeometry x="63" y="220" width="380" height="350" as="geometry" />
        </mxCell>
        <mxCell id="6aTcpgWq0u6PUV2rPB39-8" value="Public subnet(cozy-public-sbn-01a 10.0.0.0/24) " style="points=[[0,0],[0.25,0],[0.5,0],[0.75,0],[1,0],[1,0.25],[1,0.5],[1,0.75],[1,1],[0.75,1],[0.5,1],[0.25,1],[0,1],[0,0.75],[0,0.5],[0,0.25]];outlineConnect=0;gradientColor=none;html=1;whiteSpace=wrap;fontSize=12;fontStyle=0;container=1;pointerEvents=0;collapsible=0;recursiveResize=0;shape=mxgraph.aws4.group;grIcon=mxgraph.aws4.group_security_group;grStroke=0;strokeColor=#7AA116;fillColor=#F2F6E8;verticalAlign=top;align=left;spacingLeft=30;fontColor=#248814;dashed=0;" parent="UEzPUAAOIrF-is8g5C7q-74" vertex="1">
          <mxGeometry x="73" y="260" width="360" height="100" as="geometry" />
        </mxCell>
        <mxCell id="6aTcpgWq0u6PUV2rPB39-9" value="Private subnet(cozy-private-sbn-01a 10.0.2.0/24)" style="points=[[0,0],[0.25,0],[0.5,0],[0.75,0],[1,0],[1,0.25],[1,0.5],[1,0.75],[1,1],[0.75,1],[0.5,1],[0.25,1],[0,1],[0,0.75],[0,0.5],[0,0.25]];outlineConnect=0;gradientColor=none;html=1;whiteSpace=wrap;fontSize=12;fontStyle=0;container=1;pointerEvents=0;collapsible=0;recursiveResize=0;shape=mxgraph.aws4.group;grIcon=mxgraph.aws4.group_security_group;grStroke=0;strokeColor=#00A4A6;fillColor=#E6F6F7;verticalAlign=top;align=left;spacingLeft=30;fontColor=#147EBA;dashed=0;" parent="UEzPUAAOIrF-is8g5C7q-74" vertex="1">
          <mxGeometry x="73" y="370" width="360" height="90" as="geometry" />
        </mxCell>
        <mxCell id="6aTcpgWq0u6PUV2rPB39-15" value="AZ ap-northeast-2b" style="sketch=0;outlineConnect=0;gradientColor=none;html=1;whiteSpace=wrap;fontSize=12;fontStyle=0;shape=mxgraph.aws4.group;grIcon=mxgraph.aws4.group_availability_zone;strokeColor=#545B64;fillColor=none;verticalAlign=top;align=left;spacingLeft=30;fontColor=#545B64;dashed=1;" parent="UEzPUAAOIrF-is8g5C7q-74" vertex="1">
          <mxGeometry x="549" y="220" width="380" height="350" as="geometry" />
        </mxCell>
        <mxCell id="6aTcpgWq0u6PUV2rPB39-16" value="Public subnet(cozy-public-sbn-01b 10.0.1.0/24) " style="points=[[0,0],[0.25,0],[0.5,0],[0.75,0],[1,0],[1,0.25],[1,0.5],[1,0.75],[1,1],[0.75,1],[0.5,1],[0.25,1],[0,1],[0,0.75],[0,0.5],[0,0.25]];outlineConnect=0;gradientColor=none;html=1;whiteSpace=wrap;fontSize=12;fontStyle=0;container=1;pointerEvents=0;collapsible=0;recursiveResize=0;shape=mxgraph.aws4.group;grIcon=mxgraph.aws4.group_security_group;grStroke=0;strokeColor=#7AA116;fillColor=#F2F6E8;verticalAlign=top;align=left;spacingLeft=30;fontColor=#248814;dashed=0;" parent="UEzPUAAOIrF-is8g5C7q-74" vertex="1">
          <mxGeometry x="559" y="260" width="360" height="100" as="geometry" />
        </mxCell>
        <mxCell id="6aTcpgWq0u6PUV2rPB39-17" value="Private subnet(cozy-private-sbn-01a 10.0.3.0/24)" style="points=[[0,0],[0.25,0],[0.5,0],[0.75,0],[1,0],[1,0.25],[1,0.5],[1,0.75],[1,1],[0.75,1],[0.5,1],[0.25,1],[0,1],[0,0.75],[0,0.5],[0,0.25]];outlineConnect=0;gradientColor=none;html=1;whiteSpace=wrap;fontSize=12;fontStyle=0;container=1;pointerEvents=0;collapsible=0;recursiveResize=0;shape=mxgraph.aws4.group;grIcon=mxgraph.aws4.group_security_group;grStroke=0;strokeColor=#00A4A6;fillColor=#E6F6F7;verticalAlign=top;align=left;spacingLeft=30;fontColor=#147EBA;dashed=0;" parent="UEzPUAAOIrF-is8g5C7q-74" vertex="1">
          <mxGeometry x="559" y="370" width="360" height="90" as="geometry" />
        </mxCell>
        <object label="VPC 10.0.0.0/16" id="6aTcpgWq0u6PUV2rPB39-6">
          <mxCell style="sketch=0;outlineConnect=0;gradientColor=none;html=1;whiteSpace=wrap;fontSize=12;fontStyle=0;shape=mxgraph.aws4.group;grIcon=mxgraph.aws4.group_vpc;strokeColor=#879196;fillColor=none;verticalAlign=top;align=left;spacingLeft=30;fontColor=#879196;dashed=0;" parent="UEzPUAAOIrF-is8g5C7q-74" vertex="1">
            <mxGeometry x="23" y="100" width="940" height="490" as="geometry" />
          </mxCell>
        </object>
        <mxCell id="6aTcpgWq0u6PUV2rPB39-19" value="" style="sketch=0;outlineConnect=0;fontColor=#232F3E;gradientColor=none;fillColor=#8C4FFF;strokeColor=none;dashed=0;verticalLabelPosition=bottom;verticalAlign=top;align=center;html=1;fontSize=12;fontStyle=0;aspect=fixed;pointerEvents=1;shape=mxgraph.aws4.router;" parent="UEzPUAAOIrF-is8g5C7q-74" vertex="1">
          <mxGeometry x="274" y="150" width="40" height="40" as="geometry" />
        </mxCell>
        <mxCell id="6aTcpgWq0u6PUV2rPB39-20" value="" style="outlineConnect=0;dashed=0;verticalLabelPosition=bottom;verticalAlign=top;align=center;html=1;shape=mxgraph.aws3.application_load_balancer;fillColor=#F58534;gradientColor=none;" parent="UEzPUAAOIrF-is8g5C7q-74" vertex="1">
          <mxGeometry x="410" y="150" width="44" height="40" as="geometry" />
        </mxCell>
        <mxCell id="6aTcpgWq0u6PUV2rPB39-21" value="" style="outlineConnect=0;dashed=0;verticalLabelPosition=bottom;verticalAlign=top;align=center;html=1;shape=mxgraph.aws3.vpc_nat_gateway;fillColor=#F58534;gradientColor=none;" parent="UEzPUAAOIrF-is8g5C7q-74" vertex="1">
          <mxGeometry x="136" y="290" width="44" height="40" as="geometry" />
        </mxCell>
        <mxCell id="6aTcpgWq0u6PUV2rPB39-22" value="" style="sketch=0;outlineConnect=0;fontColor=#232F3E;gradientColor=none;fillColor=#8C4FFF;strokeColor=none;dashed=0;verticalLabelPosition=bottom;verticalAlign=top;align=center;html=1;fontSize=12;fontStyle=0;aspect=fixed;pointerEvents=1;shape=mxgraph.aws4.router;" parent="UEzPUAAOIrF-is8g5C7q-74" vertex="1">
          <mxGeometry x="138" y="150" width="40" height="40" as="geometry" />
        </mxCell>
        <mxCell id="zwy2K5YjzGHsYyucLyL1-1" style="edgeStyle=orthogonalEdgeStyle;rounded=0;orthogonalLoop=1;jettySize=auto;html=1;exitX=0.5;exitY=0;exitDx=0;exitDy=0;" edge="1" parent="UEzPUAAOIrF-is8g5C7q-74" source="6aTcpgWq0u6PUV2rPB39-24">
          <mxGeometry relative="1" as="geometry">
            <mxPoint x="216" y="130" as="targetPoint" />
          </mxGeometry>
        </mxCell>
        <mxCell id="6aTcpgWq0u6PUV2rPB39-24" value="IGW(cozy-igw)" style="text;html=1;align=center;verticalAlign=middle;whiteSpace=wrap;rounded=0;" parent="UEzPUAAOIrF-is8g5C7q-74" vertex="1">
          <mxGeometry x="161.5" y="110" width="119" height="30" as="geometry" />
        </mxCell>
        <mxCell id="6aTcpgWq0u6PUV2rPB39-25" value="RTB(cozy-private-rtb)" style="text;html=1;align=center;verticalAlign=middle;whiteSpace=wrap;rounded=0;" parent="UEzPUAAOIrF-is8g5C7q-74" vertex="1">
          <mxGeometry x="98.5" y="190" width="119" height="30" as="geometry" />
        </mxCell>
        <mxCell id="6aTcpgWq0u6PUV2rPB39-26" value="RTB(cozy-public-rtb)" style="text;html=1;align=center;verticalAlign=middle;whiteSpace=wrap;rounded=0;" parent="UEzPUAAOIrF-is8g5C7q-74" vertex="1">
          <mxGeometry x="236" y="190" width="119" height="30" as="geometry" />
        </mxCell>
        <mxCell id="6aTcpgWq0u6PUV2rPB39-27" value="NAT gateway&lt;br&gt;(cozy-nat-gateway-01)" style="text;html=1;align=center;verticalAlign=middle;whiteSpace=wrap;rounded=0;" parent="UEzPUAAOIrF-is8g5C7q-74" vertex="1">
          <mxGeometry x="87.25" y="330" width="141.5" height="30" as="geometry" />
        </mxCell>
        <mxCell id="6aTcpgWq0u6PUV2rPB39-28" value="ALB&lt;br&gt;(cozy-alb)" style="text;html=1;align=center;verticalAlign=middle;whiteSpace=wrap;rounded=0;" parent="UEzPUAAOIrF-is8g5C7q-74" vertex="1">
          <mxGeometry x="380" y="190" width="104" height="30" as="geometry" />
        </mxCell>
        <mxCell id="6aTcpgWq0u6PUV2rPB39-29" value="" style="sketch=0;points=[[0,0,0],[0.25,0,0],[0.5,0,0],[0.75,0,0],[1,0,0],[0,1,0],[0.25,1,0],[0.5,1,0],[0.75,1,0],[1,1,0],[0,0.25,0],[0,0.5,0],[0,0.75,0],[1,0.25,0],[1,0.5,0],[1,0.75,0]];outlineConnect=0;fontColor=#232F3E;fillColor=#ED7100;strokeColor=#ffffff;dashed=0;verticalLabelPosition=bottom;verticalAlign=top;align=center;html=1;fontSize=12;fontStyle=0;aspect=fixed;shape=mxgraph.aws4.resourceIcon;resIcon=mxgraph.aws4.ec2;" parent="UEzPUAAOIrF-is8g5C7q-74" vertex="1">
          <mxGeometry x="156" y="392" width="40" height="40" as="geometry" />
        </mxCell>
        <mxCell id="6aTcpgWq0u6PUV2rPB39-30" value="" style="sketch=0;points=[[0,0,0],[0.25,0,0],[0.5,0,0],[0.75,0,0],[1,0,0],[0,1,0],[0.25,1,0],[0.5,1,0],[0.75,1,0],[1,1,0],[0,0.25,0],[0,0.5,0],[0,0.75,0],[1,0.25,0],[1,0.5,0],[1,0.75,0]];outlineConnect=0;fontColor=#232F3E;fillColor=#ED7100;strokeColor=#ffffff;dashed=0;verticalLabelPosition=bottom;verticalAlign=top;align=center;html=1;fontSize=12;fontStyle=0;aspect=fixed;shape=mxgraph.aws4.resourceIcon;resIcon=mxgraph.aws4.ec2;" parent="UEzPUAAOIrF-is8g5C7q-74" vertex="1">
          <mxGeometry x="333" y="290" width="40" height="40" as="geometry" />
        </mxCell>
        <mxCell id="6aTcpgWq0u6PUV2rPB39-31" value="" style="sketch=0;points=[[0,0,0],[0.25,0,0],[0.5,0,0],[0.75,0,0],[1,0,0],[0,1,0],[0.25,1,0],[0.5,1,0],[0.75,1,0],[1,1,0],[0,0.25,0],[0,0.5,0],[0,0.75,0],[1,0.25,0],[1,0.5,0],[1,0.75,0]];outlineConnect=0;fontColor=#232F3E;fillColor=#ED7100;strokeColor=#ffffff;dashed=0;verticalLabelPosition=bottom;verticalAlign=top;align=center;html=1;fontSize=12;fontStyle=0;aspect=fixed;shape=mxgraph.aws4.resourceIcon;resIcon=mxgraph.aws4.ec2;" parent="UEzPUAAOIrF-is8g5C7q-74" vertex="1">
          <mxGeometry x="306" y="390" width="40" height="40" as="geometry" />
        </mxCell>
        <mxCell id="6aTcpgWq0u6PUV2rPB39-32" value="EC2 bastion&lt;br&gt;(t2.micro)" style="text;html=1;align=center;verticalAlign=middle;whiteSpace=wrap;rounded=0;" parent="UEzPUAAOIrF-is8g5C7q-74" vertex="1">
          <mxGeometry x="306" y="330" width="104" height="30" as="geometry" />
        </mxCell>
        <mxCell id="6aTcpgWq0u6PUV2rPB39-33" value="Jenkins&lt;br&gt;(t3.small)" style="text;html=1;align=center;verticalAlign=middle;whiteSpace=wrap;rounded=0;" parent="UEzPUAAOIrF-is8g5C7q-74" vertex="1">
          <mxGeometry x="247.75" y="430" width="162.25" height="30" as="geometry" />
        </mxCell>
        <mxCell id="6aTcpgWq0u6PUV2rPB39-34" value="Gitlab&lt;br&gt;(t3.large)" style="text;html=1;align=center;verticalAlign=middle;whiteSpace=wrap;rounded=0;" parent="UEzPUAAOIrF-is8g5C7q-74" vertex="1">
          <mxGeometry x="94.75" y="432" width="162.5" height="30" as="geometry" />
        </mxCell>
        <mxCell id="6aTcpgWq0u6PUV2rPB39-35" value="Route53" style="text;html=1;align=center;verticalAlign=middle;whiteSpace=wrap;rounded=0;" parent="UEzPUAAOIrF-is8g5C7q-74" vertex="1">
          <mxGeometry x="386.5" y="53" width="119" height="30" as="geometry" />
        </mxCell>
        <mxCell id="6aTcpgWq0u6PUV2rPB39-41" value="" style="endArrow=classic;html=1;rounded=0;entryX=0.5;entryY=0;entryDx=0;entryDy=0;exitX=0.5;exitY=0;exitDx=0;exitDy=0;exitPerimeter=0;" parent="UEzPUAAOIrF-is8g5C7q-74" source="6aTcpgWq0u6PUV2rPB39-21" target="6aTcpgWq0u6PUV2rPB39-25" edge="1">
          <mxGeometry width="50" height="50" relative="1" as="geometry">
            <mxPoint x="446" y="470" as="sourcePoint" />
            <mxPoint x="496" y="420" as="targetPoint" />
          </mxGeometry>
        </mxCell>
        <mxCell id="6aTcpgWq0u6PUV2rPB39-42" value="" style="edgeStyle=segmentEdgeStyle;endArrow=classic;html=1;curved=0;rounded=0;endSize=8;startSize=8;entryX=0;entryY=0.5;entryDx=0;entryDy=0;entryPerimeter=0;" parent="UEzPUAAOIrF-is8g5C7q-74" source="6aTcpgWq0u6PUV2rPB39-22" edge="1">
          <mxGeometry width="50" height="50" relative="1" as="geometry">
            <mxPoint x="197.75" y="195" as="sourcePoint" />
            <mxPoint x="217.5" y="100" as="targetPoint" />
          </mxGeometry>
        </mxCell>
        <mxCell id="6aTcpgWq0u6PUV2rPB39-46" value="" style="edgeStyle=segmentEdgeStyle;endArrow=classic;html=1;curved=0;rounded=0;endSize=8;startSize=8;exitX=1;exitY=0.5;exitDx=0;exitDy=0;exitPerimeter=0;" parent="UEzPUAAOIrF-is8g5C7q-74" source="6aTcpgWq0u6PUV2rPB39-4" edge="1">
          <mxGeometry width="50" height="50" relative="1" as="geometry">
            <mxPoint x="346" y="60" as="sourcePoint" />
            <mxPoint x="443" y="40" as="targetPoint" />
          </mxGeometry>
        </mxCell>
        <mxCell id="6aTcpgWq0u6PUV2rPB39-48" value="" style="edgeStyle=elbowEdgeStyle;rounded=0;elbow=vertical;html=1;labelBackgroundColor=#ffffff;startArrow=classic;startFill=1;startSize=6;endArrow=classic;endFill=1;endSize=6;jettySize=auto;orthogonalLoop=1;strokeWidth=1;fontSize=14;exitX=0.5;exitY=1;exitDx=0;exitDy=0;exitPerimeter=0;" parent="UEzPUAAOIrF-is8g5C7q-74" source="6aTcpgWq0u6PUV2rPB39-4" target="6aTcpgWq0u6PUV2rPB39-19" edge="1">
          <mxGeometry width="60" height="60" relative="1" as="geometry">
            <mxPoint x="383.5" y="140" as="sourcePoint" />
            <mxPoint x="383.5" y="260" as="targetPoint" />
            <Array as="points">
              <mxPoint x="246" y="170" />
            </Array>
          </mxGeometry>
        </mxCell>
        <mxCell id="6aTcpgWq0u6PUV2rPB39-52" value="" style="endArrow=classic;html=1;rounded=0;entryX=0.5;entryY=0;entryDx=0;entryDy=0;" parent="UEzPUAAOIrF-is8g5C7q-74" source="6aTcpgWq0u6PUV2rPB39-29" target="6aTcpgWq0u6PUV2rPB39-27" edge="1">
          <mxGeometry width="50" height="50" relative="1" as="geometry">
            <mxPoint x="168" y="300" as="sourcePoint" />
            <mxPoint x="168" y="200" as="targetPoint" />
          </mxGeometry>
        </mxCell>
        <mxCell id="6aTcpgWq0u6PUV2rPB39-53" value="" style="endArrow=classic;html=1;rounded=0;entryX=0.5;entryY=1;entryDx=0;entryDy=0;exitX=0.5;exitY=0;exitDx=0;exitDy=0;exitPerimeter=0;entryPerimeter=0;" parent="UEzPUAAOIrF-is8g5C7q-74" source="6aTcpgWq0u6PUV2rPB39-31" target="6aTcpgWq0u6PUV2rPB39-21" edge="1">
          <mxGeometry width="50" height="50" relative="1" as="geometry">
            <mxPoint x="182" y="402" as="sourcePoint" />
            <mxPoint x="168" y="340" as="targetPoint" />
          </mxGeometry>
        </mxCell>
        <mxCell id="UDt6XIp2gqKUDKTuMvoi-13" value="" style="sketch=0;points=[[0,0,0],[0.25,0,0],[0.5,0,0],[0.75,0,0],[1,0,0],[0,1,0],[0.25,1,0],[0.5,1,0],[0.75,1,0],[1,1,0],[0,0.25,0],[0,0.5,0],[0,0.75,0],[1,0.25,0],[1,0.5,0],[1,0.75,0]];outlineConnect=0;fontColor=#232F3E;fillColor=#8C4FFF;strokeColor=#ffffff;dashed=0;verticalLabelPosition=bottom;verticalAlign=top;align=center;html=1;fontSize=12;fontStyle=0;aspect=fixed;shape=mxgraph.aws4.resourceIcon;resIcon=mxgraph.aws4.route_53;" parent="UEzPUAAOIrF-is8g5C7q-74" vertex="1">
          <mxGeometry x="418" width="60" height="60" as="geometry" />
        </mxCell>
        <mxCell id="zwy2K5YjzGHsYyucLyL1-2" value="" style="endArrow=classic;html=1;rounded=0;exitX=0;exitY=0.5;exitDx=0;exitDy=0;exitPerimeter=0;" edge="1" parent="UEzPUAAOIrF-is8g5C7q-74" source="6aTcpgWq0u6PUV2rPB39-20" target="6aTcpgWq0u6PUV2rPB39-19">
          <mxGeometry width="50" height="50" relative="1" as="geometry">
            <mxPoint x="426" y="180" as="sourcePoint" />
            <mxPoint x="476" y="130" as="targetPoint" />
          </mxGeometry>
        </mxCell>
        <mxCell id="zwy2K5YjzGHsYyucLyL1-5" value="" style="endArrow=classic;startArrow=classic;html=1;rounded=0;exitX=1;exitY=0;exitDx=0;exitDy=0;exitPerimeter=0;entryX=0.5;entryY=1;entryDx=0;entryDy=0;entryPerimeter=0;" edge="1" parent="UEzPUAAOIrF-is8g5C7q-74" source="6aTcpgWq0u6PUV2rPB39-29" target="6aTcpgWq0u6PUV2rPB39-20">
          <mxGeometry width="50" height="50" relative="1" as="geometry">
            <mxPoint x="328" y="240" as="sourcePoint" />
            <mxPoint x="378" y="190" as="targetPoint" />
          </mxGeometry>
        </mxCell>
        <mxCell id="zwy2K5YjzGHsYyucLyL1-6" value="" style="endArrow=classic;startArrow=classic;html=1;rounded=0;exitX=0.5;exitY=0;exitDx=0;exitDy=0;exitPerimeter=0;entryX=0.5;entryY=1;entryDx=0;entryDy=0;entryPerimeter=0;" edge="1" parent="UEzPUAAOIrF-is8g5C7q-74" source="6aTcpgWq0u6PUV2rPB39-31" target="6aTcpgWq0u6PUV2rPB39-20">
          <mxGeometry width="50" height="50" relative="1" as="geometry">
            <mxPoint x="206" y="402" as="sourcePoint" />
            <mxPoint x="388" y="200" as="targetPoint" />
          </mxGeometry>
        </mxCell>
        <mxCell id="zwy2K5YjzGHsYyucLyL1-7" value="Auto Scaling group" style="points=[[0,0],[0.25,0],[0.5,0],[0.75,0],[1,0],[1,0.25],[1,0.5],[1,0.75],[1,1],[0.75,1],[0.5,1],[0.25,1],[0,1],[0,0.75],[0,0.5],[0,0.25]];outlineConnect=0;gradientColor=none;html=1;whiteSpace=wrap;fontSize=12;fontStyle=0;container=1;pointerEvents=0;collapsible=0;recursiveResize=0;shape=mxgraph.aws4.groupCenter;grIcon=mxgraph.aws4.group_auto_scaling_group;grStroke=1;strokeColor=#D86613;fillColor=none;verticalAlign=top;align=center;fontColor=#D86613;dashed=1;spacingTop=25;" vertex="1" parent="UEzPUAAOIrF-is8g5C7q-74">
          <mxGeometry x="373" y="350" width="247" height="110" as="geometry" />
        </mxCell>
        <mxCell id="zwy2K5YjzGHsYyucLyL1-8" value="" style="sketch=0;points=[[0,0,0],[0.25,0,0],[0.5,0,0],[0.75,0,0],[1,0,0],[0,1,0],[0.25,1,0],[0.5,1,0],[0.75,1,0],[1,1,0],[0,0.25,0],[0,0.5,0],[0,0.75,0],[1,0.25,0],[1,0.5,0],[1,0.75,0]];outlineConnect=0;fontColor=#232F3E;fillColor=#8C4FFF;strokeColor=#ffffff;dashed=0;verticalLabelPosition=bottom;verticalAlign=top;align=center;html=1;fontSize=12;fontStyle=0;aspect=fixed;shape=mxgraph.aws4.resourceIcon;resIcon=mxgraph.aws4.cloudfront;" vertex="1" parent="UEzPUAAOIrF-is8g5C7q-74">
          <mxGeometry x="536" width="60" height="60" as="geometry" />
        </mxCell>
        <mxCell id="zwy2K5YjzGHsYyucLyL1-9" value="" style="sketch=0;points=[[0,0,0],[0.25,0,0],[0.5,0,0],[0.75,0,0],[1,0,0],[0,1,0],[0.25,1,0],[0.5,1,0],[0.75,1,0],[1,1,0],[0,0.25,0],[0,0.5,0],[0,0.75,0],[1,0.25,0],[1,0.5,0],[1,0.75,0]];outlineConnect=0;fontColor=#232F3E;fillColor=#7AA116;strokeColor=#ffffff;dashed=0;verticalLabelPosition=bottom;verticalAlign=top;align=center;html=1;fontSize=12;fontStyle=0;aspect=fixed;shape=mxgraph.aws4.resourceIcon;resIcon=mxgraph.aws4.s3;" vertex="1" parent="UEzPUAAOIrF-is8g5C7q-74">
          <mxGeometry x="656" width="60" height="60" as="geometry" />
        </mxCell>
        <mxCell id="zwy2K5YjzGHsYyucLyL1-10" value="" style="outlineConnect=0;dashed=0;verticalLabelPosition=bottom;verticalAlign=top;align=center;html=1;shape=mxgraph.aws3.application_load_balancer;fillColor=#F58534;gradientColor=none;" vertex="1" parent="UEzPUAAOIrF-is8g5C7q-74">
          <mxGeometry x="476" y="150" width="44" height="40" as="geometry" />
        </mxCell>
        <mxCell id="zwy2K5YjzGHsYyucLyL1-11" value="" style="endArrow=classic;startArrow=classic;html=1;rounded=0;exitX=0.5;exitY=0;exitDx=0;exitDy=0;entryX=0.5;entryY=1;entryDx=0;entryDy=0;entryPerimeter=0;" edge="1" parent="UEzPUAAOIrF-is8g5C7q-74" source="zwy2K5YjzGHsYyucLyL1-7" target="zwy2K5YjzGHsYyucLyL1-10">
          <mxGeometry width="50" height="50" relative="1" as="geometry">
            <mxPoint x="206" y="402" as="sourcePoint" />
            <mxPoint x="442" y="200" as="targetPoint" />
          </mxGeometry>
        </mxCell>
        <mxCell id="zwy2K5YjzGHsYyucLyL1-12" value="" style="endArrow=classic;startArrow=classic;html=1;rounded=0;exitX=0;exitY=0.5;exitDx=0;exitDy=0;exitPerimeter=0;" edge="1" parent="UEzPUAAOIrF-is8g5C7q-74" source="zwy2K5YjzGHsYyucLyL1-10" target="6aTcpgWq0u6PUV2rPB39-19">
          <mxGeometry width="50" height="50" relative="1" as="geometry">
            <mxPoint x="507" y="360" as="sourcePoint" />
            <mxPoint x="508" y="200" as="targetPoint" />
          </mxGeometry>
        </mxCell>
        <mxCell id="zwy2K5YjzGHsYyucLyL1-14" value="" style="edgeStyle=orthogonalEdgeStyle;html=1;endArrow=none;elbow=vertical;startArrow=open;startFill=0;strokeColor=#545B64;rounded=0;exitX=1;exitY=0.5;exitDx=0;exitDy=0;exitPerimeter=0;" edge="1" parent="UEzPUAAOIrF-is8g5C7q-74" source="zwy2K5YjzGHsYyucLyL1-8">
          <mxGeometry width="100" relative="1" as="geometry">
            <mxPoint x="556" y="30" as="sourcePoint" />
            <mxPoint x="656" y="30" as="targetPoint" />
          </mxGeometry>
        </mxCell>
        <mxCell id="zwy2K5YjzGHsYyucLyL1-16" value="" style="html=1;labelBackgroundColor=#ffffff;startArrow=none;startFill=0;startSize=6;endArrow=classic;endFill=1;endSize=6;jettySize=auto;orthogonalLoop=1;strokeWidth=1;dashed=1;fontSize=14;rounded=0;entryX=1;entryY=0.5;entryDx=0;entryDy=0;entryPerimeter=0;exitX=0;exitY=0.5;exitDx=0;exitDy=0;exitPerimeter=0;" edge="1" parent="UEzPUAAOIrF-is8g5C7q-74" source="zwy2K5YjzGHsYyucLyL1-8" target="UDt6XIp2gqKUDKTuMvoi-13">
          <mxGeometry width="60" height="60" relative="1" as="geometry">
            <mxPoint x="406" y="320" as="sourcePoint" />
            <mxPoint x="466" y="260" as="targetPoint" />
          </mxGeometry>
        </mxCell>
        <mxCell id="zwy2K5YjzGHsYyucLyL1-17" value="" style="html=1;labelBackgroundColor=#ffffff;startArrow=none;startFill=0;startSize=6;endArrow=classic;endFill=1;endSize=6;jettySize=auto;orthogonalLoop=1;strokeWidth=1;dashed=1;fontSize=14;rounded=0;entryX=0.5;entryY=1;entryDx=0;entryDy=0;entryPerimeter=0;" edge="1" parent="UEzPUAAOIrF-is8g5C7q-74" source="6aTcpgWq0u6PUV2rPB39-20" target="UDt6XIp2gqKUDKTuMvoi-13">
          <mxGeometry width="60" height="60" relative="1" as="geometry">
            <mxPoint x="578" y="130" as="sourcePoint" />
            <mxPoint x="520" y="130" as="targetPoint" />
          </mxGeometry>
        </mxCell>
        <mxCell id="zwy2K5YjzGHsYyucLyL1-18" value="" style="html=1;labelBackgroundColor=#ffffff;startArrow=none;startFill=0;startSize=6;endArrow=classic;endFill=1;endSize=6;jettySize=auto;orthogonalLoop=1;strokeWidth=1;dashed=1;fontSize=14;rounded=0;entryX=0.5;entryY=1;entryDx=0;entryDy=0;entryPerimeter=0;exitX=0.5;exitY=0;exitDx=0;exitDy=0;exitPerimeter=0;" edge="1" parent="UEzPUAAOIrF-is8g5C7q-74" source="zwy2K5YjzGHsYyucLyL1-10" target="UDt6XIp2gqKUDKTuMvoi-13">
          <mxGeometry width="60" height="60" relative="1" as="geometry">
            <mxPoint x="445" y="160" as="sourcePoint" />
            <mxPoint x="458" y="70" as="targetPoint" />
          </mxGeometry>
        </mxCell>
        <mxCell id="zwy2K5YjzGHsYyucLyL1-19" value="ALB&lt;br&gt;(cozy-eks)" style="text;html=1;align=center;verticalAlign=middle;whiteSpace=wrap;rounded=0;" vertex="1" parent="UEzPUAAOIrF-is8g5C7q-74">
          <mxGeometry x="446" y="190" width="104" height="30" as="geometry" />
        </mxCell>
        <mxCell id="zwy2K5YjzGHsYyucLyL1-20" value="&lt;div&gt;CloudFront&lt;/div&gt;" style="text;html=1;align=center;verticalAlign=middle;whiteSpace=wrap;rounded=0;" vertex="1" parent="UEzPUAAOIrF-is8g5C7q-74">
          <mxGeometry x="507" y="53" width="119" height="30" as="geometry" />
        </mxCell>
        <mxCell id="zwy2K5YjzGHsYyucLyL1-21" value="S3" style="text;html=1;align=center;verticalAlign=middle;whiteSpace=wrap;rounded=0;" vertex="1" parent="UEzPUAAOIrF-is8g5C7q-74">
          <mxGeometry x="628" y="53" width="119" height="30" as="geometry" />
        </mxCell>
        <mxCell id="6aTcpgWq0u6PUV2rPB39-1" value="" style="outlineConnect=0;dashed=0;verticalLabelPosition=bottom;verticalAlign=top;align=center;html=1;shape=mxgraph.aws3.management_console;fillColor=#F58534;gradientColor=none;" parent="1" vertex="1">
          <mxGeometry x="560" y="30" width="63" height="63" as="geometry" />
        </mxCell>
        <mxCell id="UDt6XIp2gqKUDKTuMvoi-3" value="EKS" style="sketch=0;points=[[0,0,0],[0.25,0,0],[0.5,0,0],[0.75,0,0],[1,0,0],[0,1,0],[0.25,1,0],[0.5,1,0],[0.75,1,0],[1,1,0],[0,0.25,0],[0,0.5,0],[0,0.75,0],[1,0.25,0],[1,0.5,0],[1,0.75,0]];outlineConnect=0;fontColor=#232F3E;fillColor=#ED7100;strokeColor=#ffffff;dashed=0;verticalLabelPosition=bottom;verticalAlign=top;align=center;html=1;fontSize=12;fontStyle=0;aspect=fixed;shape=mxgraph.aws4.resourceIcon;resIcon=mxgraph.aws4.eks;" parent="1" vertex="1">
          <mxGeometry x="617.38" y="545" width="48" height="48" as="geometry" />
        </mxCell>
        <mxCell id="UDt6XIp2gqKUDKTuMvoi-4" value="eks node" style="sketch=0;points=[[0,0,0],[0.25,0,0],[0.5,0,0],[0.75,0,0],[1,0,0],[0,1,0],[0.25,1,0],[0.5,1,0],[0.75,1,0],[1,1,0],[0,0.25,0],[0,0.5,0],[0,0.75,0],[1,0.25,0],[1,0.5,0],[1,0.75,0]];outlineConnect=0;fontColor=#232F3E;fillColor=#ED7100;strokeColor=#ffffff;dashed=0;verticalLabelPosition=bottom;verticalAlign=top;align=center;html=1;fontSize=12;fontStyle=0;aspect=fixed;shape=mxgraph.aws4.resourceIcon;resIcon=mxgraph.aws4.ec2;" parent="1" vertex="1">
          <mxGeometry x="527.5" y="543" width="42.75" height="42.75" as="geometry" />
        </mxCell>
        <mxCell id="UDt6XIp2gqKUDKTuMvoi-5" value="eks node" style="sketch=0;points=[[0,0,0],[0.25,0,0],[0.5,0,0],[0.75,0,0],[1,0,0],[0,1,0],[0.25,1,0],[0.5,1,0],[0.75,1,0],[1,1,0],[0,0.25,0],[0,0.5,0],[0,0.75,0],[1,0.25,0],[1,0.5,0],[1,0.75,0]];outlineConnect=0;fontColor=#232F3E;fillColor=#ED7100;strokeColor=#ffffff;dashed=0;verticalLabelPosition=bottom;verticalAlign=top;align=center;html=1;fontSize=12;fontStyle=0;aspect=fixed;shape=mxgraph.aws4.resourceIcon;resIcon=mxgraph.aws4.ec2;" parent="1" vertex="1">
          <mxGeometry x="707.5" y="539.75" width="40" height="40" as="geometry" />
        </mxCell>
        <mxCell id="UDt6XIp2gqKUDKTuMvoi-6" value="" style="endArrow=classic;html=1;rounded=0;entryX=0.5;entryY=0;entryDx=0;entryDy=0;entryPerimeter=0;exitX=0.216;exitY=1.063;exitDx=0;exitDy=0;exitPerimeter=0;" parent="1" edge="1">
          <mxGeometry width="50" height="50" relative="1" as="geometry">
            <mxPoint x="639.5" y="596" as="sourcePoint" />
            <mxPoint x="643.3800000000001" y="631.44" as="targetPoint" />
          </mxGeometry>
        </mxCell>
        <mxCell id="UDt6XIp2gqKUDKTuMvoi-8" value="Private subnet(cozy-private-sbn-02a 10.0.5.0/24)" style="points=[[0,0],[0.25,0],[0.5,0],[0.75,0],[1,0],[1,0.25],[1,0.5],[1,0.75],[1,1],[0.75,1],[0.5,1],[0.25,1],[0,1],[0,0.75],[0,0.5],[0,0.25]];outlineConnect=0;gradientColor=none;html=1;whiteSpace=wrap;fontSize=12;fontStyle=0;container=1;pointerEvents=0;collapsible=0;recursiveResize=0;shape=mxgraph.aws4.group;grIcon=mxgraph.aws4.group_security_group;grStroke=0;strokeColor=#00A4A6;fillColor=#E6F6F7;verticalAlign=top;align=left;spacingLeft=30;fontColor=#147EBA;dashed=0;" parent="1" vertex="1">
          <mxGeometry x="217" y="610" width="360" height="90" as="geometry" />
        </mxCell>
        <mxCell id="UDt6XIp2gqKUDKTuMvoi-9" value="Private subnet(cozy-private-sbn-02b 10.0.6.0/24)" style="points=[[0,0],[0.25,0],[0.5,0],[0.75,0],[1,0],[1,0.25],[1,0.5],[1,0.75],[1,1],[0.75,1],[0.5,1],[0.25,1],[0,1],[0,0.75],[0,0.5],[0,0.25]];outlineConnect=0;gradientColor=none;html=1;whiteSpace=wrap;fontSize=12;fontStyle=0;container=1;pointerEvents=0;collapsible=0;recursiveResize=0;shape=mxgraph.aws4.group;grIcon=mxgraph.aws4.group_security_group;grStroke=0;strokeColor=#00A4A6;fillColor=#E6F6F7;verticalAlign=top;align=left;spacingLeft=30;fontColor=#147EBA;dashed=0;" parent="1" vertex="1">
          <mxGeometry x="703" y="610" width="360" height="90" as="geometry" />
        </mxCell>
        <mxCell id="UDt6XIp2gqKUDKTuMvoi-10" value="RDS&lt;br&gt;(writer)Instance" style="sketch=0;outlineConnect=0;fontColor=#232F3E;gradientColor=none;fillColor=#C925D1;strokeColor=none;dashed=0;verticalLabelPosition=bottom;verticalAlign=top;align=center;html=1;fontSize=12;fontStyle=0;aspect=fixed;pointerEvents=1;shape=mxgraph.aws4.rds_instance;" parent="1" vertex="1">
          <mxGeometry x="527.5" y="636" width="42.88" height="42.88" as="geometry" />
        </mxCell>
        <mxCell id="UDt6XIp2gqKUDKTuMvoi-11" value="RDS&lt;br&gt;(Aurora Cluster)" style="sketch=0;points=[[0,0,0],[0.25,0,0],[0.5,0,0],[0.75,0,0],[1,0,0],[0,1,0],[0.25,1,0],[0.5,1,0],[0.75,1,0],[1,1,0],[0,0.25,0],[0,0.5,0],[0,0.75,0],[1,0.25,0],[1,0.5,0],[1,0.75,0]];outlineConnect=0;fontColor=#232F3E;fillColor=#C925D1;strokeColor=#ffffff;dashed=0;verticalLabelPosition=bottom;verticalAlign=top;align=center;html=1;fontSize=12;fontStyle=0;aspect=fixed;shape=mxgraph.aws4.resourceIcon;resIcon=mxgraph.aws4.rds;" parent="1" vertex="1">
          <mxGeometry x="617.38" y="631.44" width="52" height="52" as="geometry" />
        </mxCell>
        <mxCell id="UDt6XIp2gqKUDKTuMvoi-12" value="RDS&lt;br&gt;(writer)Instance" style="sketch=0;outlineConnect=0;fontColor=#232F3E;gradientColor=none;fillColor=#C925D1;strokeColor=none;dashed=0;verticalLabelPosition=bottom;verticalAlign=top;align=center;html=1;fontSize=12;fontStyle=0;aspect=fixed;pointerEvents=1;shape=mxgraph.aws4.rds_instance;" parent="1" vertex="1">
          <mxGeometry x="717.5" y="630.56" width="42.88" height="49.88" as="geometry" />
        </mxCell>
      </root>
    </mxGraphModel>
  </diagram>
</mxfile>
